<svg xmlns="http://www.w3.org/2000/svg" viewBox="-113.3 -167.1 866 700"><g fill="#66BB6A"><path d="M594.1-97.2c-.2-.7-.9-1-1.5-.8l-10.7 3.2c-1.8-4.6-4.7-9-8.5-12.8-3.8-3.8-8.2-6.7-12.9-8.5l3.2-10.8c.2-.7-.2-1.3-.8-1.5-.7-.2-1.3.2-1.5.8l-3.2 10.7c-8.8-2.8-18.1-2-25.6 2.4-1.9 1.2-3.8 2.6-5.4 4.2-.2.2-.5.5-.7.8l48.8 48.8 2.6-2.6c.7-.8 1.3-1.6 1.8-2.5 5-7.7 5.9-17.5 3-26.6l10.6-3.2c.6-.2 1-.9.8-1.6zm-41.2-7.7c-1.3 1.3-3.3 1.3-4.6 0-1.3-1.3-1.3-3.3 0-4.6 1.3-1.3 3.3-1.3 4.6 0 1.3 1.3 1.3 3.3 0 4.6zm22.3 22.2c-1.3 1.3-3.3 1.3-4.6 0-1.3-1.3-1.3-3.3 0-4.6 1.3-1.3 3.3-1.3 4.6 0 1.2 1.3 1.2 3.4 0 4.6zm-79.7.1l9.2-9.2 4.3-4.3 9.2-9.2c3-3 3-7.8 0-10.8s-7.8-3-10.8 0l-9.2 9.2-4.3 4.3-9.2 9.2c-3 3-3 7.8 0 10.8 3 3 7.8 3 10.8 0zm75.2 30l-9.2 9.2-4.3 4.3-9.2 9.2c-3 3-3 7.8 0 10.8 3 3 7.8 3 10.8 0l9.2-9.2 4.3-4.3 9.2-9.2c3-3 3-7.8 0-10.8-3-3-7.8-3-10.8 0z"/><path d="M156.8 355.9l416.6-415-49-48.8L156.8 258 15.1 117.1c-3-3-7.8-3-10.8 0l-4.6 4.6-3.2-3.2-9.2-9.2c-3-3-7.8-3-10.8 0s-3 7.8 0 10.8l9.2 9.2 3.2 3.2-7.4 7.4-3.2-3.2-9.2-9.2c-3-3-7.8-3-10.8 0-3 3-3 7.8 0 10.8l9.2 9.2 3.2 3.2-4.6 4.6c-3 3-3 7.8 0 10.8l190.7 189.8z"/></g><path d="M-43.3 457.7H.1v6.3h-50.8v-87.8h7.5v81.5zm55.5-77.9c0-1.4.4-2.5 1.3-3.4.9-.9 2.1-1.4 3.6-1.4s2.7.5 3.6 1.4c.9.9 1.4 2.1 1.4 3.4 0 1.4-.5 2.5-1.4 3.4-.9.9-2.1 1.4-3.6 1.4s-2.7-.5-3.6-1.4c-.8-.9-1.3-2-1.3-3.4zm8.5 84.1h-7.2v-65.3h7.2v65.3zm26.5-65.2l.2 11.2c2.5-4 5.5-7.1 9.2-9.2 3.7-2.1 7.7-3.2 12.1-3.2 7 0 12.2 2 15.6 5.9 3.4 3.9 5.1 9.9 5.2 17.7v42.8h-7.2V421c0-5.8-1.3-10.2-3.7-13-2.4-2.9-6.3-4.3-11.7-4.3-4.5 0-8.4 1.4-11.9 4.2-3.4 2.8-6 6.6-7.6 11.3v44.7h-7.2v-65.3h7zm72.2-16.7v16.7h13.5v5.9h-13.5v43.5c0 3.6.7 6.3 2 8.1 1.3 1.8 3.5 2.7 6.5 2.7 1.2 0 3.2-.2 5.9-.6l.3 5.9c-1.9.7-4.5 1-7.7 1-4.9 0-8.5-1.4-10.8-4.3-2.3-2.9-3.4-7.1-3.4-12.7v-43.5h-12v-5.9h12V382h7.2zm109.9 60.4c0-4.9-1.7-8.7-5.1-11.6-3.4-2.8-9.7-5.5-18.8-8.1-9.1-2.6-15.7-5.3-19.9-8.4-6-4.3-8.9-9.9-8.9-16.8 0-6.7 2.8-12.2 8.3-16.4 5.5-4.2 12.6-6.3 21.2-6.3 5.8 0 11 1.1 15.7 3.4 4.6 2.3 8.2 5.4 10.7 9.4s3.8 8.5 3.8 13.5h-7.5c0-6-2.1-10.8-6.2-14.5-4.1-3.7-9.6-5.5-16.5-5.5-6.7 0-12.1 1.5-16 4.5-4 3-6 6.9-6 11.7 0 4.5 1.8 8.1 5.4 10.9 3.6 2.8 9.3 5.3 17.2 7.5 7.9 2.2 13.9 4.4 17.9 6.7 4.1 2.3 7.1 5.1 9.2 8.3 2.1 3.2 3.1 7 3.1 11.4 0 6.9-2.8 12.5-8.3 16.6-5.5 4.2-12.8 6.3-21.9 6.3-6.2 0-11.9-1.1-17-3.3-5.2-2.2-9.1-5.3-11.8-9.3-2.7-4-4-8.5-4-13.7h7.4c0 6.2 2.3 11.1 6.9 14.7 4.6 3.6 10.8 5.4 18.5 5.4 6.8 0 12.3-1.5 16.5-4.5 4-3 6.1-7 6.1-11.9zm63.8 13.3c-4.3 6.3-11.3 9.5-20.8 9.5-7 0-12.2-2-15.9-6.1-3.6-4-5.5-10-5.5-17.9v-42.5h7.2v41.6c0 12.4 5 18.6 15.1 18.6 10.5 0 17.1-4.3 19.8-13v-47.2h7.2V464h-7l-.1-8.3zm32.4-57l.2 10.6c2.4-3.9 5.4-6.9 9-8.9 3.6-2 7.6-3 12.1-3 10.3 0 16.8 4.2 19.6 12.7 2.3-4.1 5.4-7.2 9.3-9.4 3.9-2.2 8.2-3.3 12.9-3.3 14 0 21.1 7.6 21.4 22.9v43.5h-7.2v-43c0-5.8-1.3-10.2-3.8-13-2.5-2.8-6.5-4.2-12.1-4.2-5.2.1-9.6 1.8-13.1 5-3.6 3.3-5.6 7.3-6 12v43.2h-7.2v-43.5c0-5.6-1.4-9.8-3.9-12.5-2.6-2.8-6.6-4.1-12-4.1-4.5 0-8.4 1.3-11.7 3.9-3.3 2.6-5.7 6.4-7.2 11.5v44.8h-7.2v-65.3h6.9zm109.5 0l.2 10.6c2.4-3.9 5.4-6.9 9-8.9 3.6-2 7.6-3 12.1-3 10.3 0 16.8 4.2 19.6 12.7 2.3-4.1 5.4-7.2 9.3-9.4 3.9-2.2 8.2-3.3 12.9-3.3 14 0 21.1 7.6 21.4 22.9v43.5h-7.2v-43c0-5.8-1.3-10.2-3.8-13-2.5-2.8-6.5-4.2-12.1-4.2-5.2.1-9.6 1.8-13.1 5-3.6 3.3-5.6 7.3-6 12v43.2h-7.2v-43.5c0-5.6-1.4-9.8-3.9-12.5-2.6-2.8-6.6-4.1-12-4.1-4.5 0-8.4 1.3-11.7 3.9-3.3 2.6-5.7 6.4-7.2 11.5v44.8h-7.2v-65.3h6.9zm144.1 65.2c-.7-2.1-1.2-5.1-1.4-9.1-2.5 3.3-5.8 5.8-9.7 7.6-3.9 1.8-8.1 2.7-12.5 2.7-6.3 0-11.4-1.7-15.2-5.2-3.9-3.5-5.8-7.9-5.8-13.3 0-6.4 2.6-11.4 7.9-15.1 5.3-3.7 12.7-5.5 22.1-5.5h13.1v-7.4c0-4.7-1.4-8.3-4.3-11s-7.1-4-12.6-4c-5 0-9.2 1.3-12.5 3.9-3.3 2.6-4.9 5.7-4.9 9.3l-7.2-.1c0-5.2 2.4-9.7 7.2-13.5s10.8-5.7 17.8-5.7c7.3 0 13 1.8 17.2 5.5 4.2 3.6 6.4 8.7 6.5 15.2V449c0 6.3.7 11 2 14.2v.7h-7.7zm-22.7-5.1c4.8 0 9.1-1.2 12.9-3.5 3.8-2.3 6.6-5.4 8.3-9.3v-14.4h-12.9c-7.2.1-12.8 1.4-16.9 4-4.1 2.6-6.1 6.1-6.1 10.5 0 3.7 1.4 6.7 4.1 9.1 2.7 2.4 6.3 3.6 10.6 3.6zm77.8-54c-1.5-.3-3.2-.4-4.9-.4-4.5 0-8.3 1.3-11.4 3.8s-5.3 6.2-6.7 10.9v44.8H604v-65.3h7.1l.1 10.4c3.8-7.7 10-11.6 18.4-11.6 2 0 3.6.3 4.8.8l-.2 6.6zm33.2 48.8l19.1-54.9h7.8L666.4 475l-1.4 3.4c-3.6 7.9-9.1 11.9-16.6 11.9-1.7 0-3.6-.3-5.5-.8l-.1-6 3.7.4c3.5 0 6.4-.9 8.6-2.6 2.2-1.7 4-4.8 5.6-9l3.2-8.8-24.6-64.7h7.9l20.2 54.8zM443.2 330.3h-28.5l-6.5 17.6h-5.6l23.7-62.7h5l23.7 62.7h-5.5l-6.3-17.6zm-26.8-4.4h25.2L429 291.7l-12.6 34.2zm51.8-24.6l.2 8c1.8-2.9 3.9-5.1 6.5-6.6s5.5-2.3 8.7-2.3c5 0 8.7 1.4 11.2 4.2 2.4 2.8 3.7 7 3.7 12.7V348h-5.1v-30.6c0-4.2-.9-7.3-2.6-9.3-1.7-2-4.5-3.1-8.3-3.1-3.2 0-6 1-8.5 3s-4.3 4.7-5.5 8.1V348h-5.1v-46.6h4.8zm41.5 22.9c0-7.2 1.6-13 4.8-17.3 3.2-4.3 7.6-6.4 13.2-6.4 6.3 0 11.1 2.5 14.4 7.5v-26.2h5.1V348h-4.8l-.2-6.2c-3.3 4.7-8.2 7.1-14.6 7.1-5.4 0-9.7-2.2-13-6.5-3.3-4.3-4.9-10.2-4.9-17.5v-.7zm5.2.9c0 5.9 1.2 10.6 3.6 14.1 2.4 3.4 5.7 5.1 10.1 5.1 6.3 0 10.9-2.8 13.5-8.4V314c-2.7-6.1-7.2-9.1-13.4-9.1-4.3 0-7.7 1.7-10.1 5.1-2.5 3.5-3.7 8.5-3.7 15.1zm67.4-19.4c-1.1-.2-2.3-.3-3.5-.3-3.2 0-5.9.9-8.2 2.7-2.2 1.8-3.8 4.4-4.8 7.8v32h-5.1v-46.6h5l.1 7.4c2.7-5.5 7.1-8.3 13.1-8.3 1.4 0 2.6.2 3.4.6v4.7zm4.4 18.3c0-4.5.9-8.5 2.6-12.1 1.7-3.6 4.2-6.4 7.4-8.4s6.8-3 10.8-3c6.2 0 11.2 2.2 15.1 6.5 3.8 4.4 5.8 10.1 5.8 17.3v1.1c0 4.5-.9 8.6-2.6 12.2-1.7 3.6-4.2 6.4-7.3 8.3-3.2 2-6.8 2.9-10.8 2.9-6.2 0-11.2-2.2-15.1-6.5-3.9-4.3-5.8-10.1-5.8-17.3v-1zm5.2 1.4c0 5.6 1.4 10.1 4.3 13.7 2.9 3.6 6.7 5.4 11.4 5.4s8.4-1.8 11.3-5.4c2.9-3.6 4.3-8.3 4.3-14.2v-1c0-3.6-.7-6.8-2-9.8-1.3-3-3.2-5.2-5.6-6.9-2.4-1.6-5.1-2.4-8.2-2.4-4.6 0-8.3 1.8-11.2 5.4-2.9 3.6-4.4 8.3-4.4 14.2v1zm46.8-37.5c0-1 .3-1.8.9-2.5.6-.7 1.5-1 2.6-1s2 .3 2.6 1c.6.7 1 1.5 1 2.5s-.3 1.8-1 2.4c-.6.7-1.5 1-2.6 1s-2-.3-2.6-1c-.6-.6-.9-1.5-.9-2.4zm6.1 60.1h-5.2v-46.6h5.2V348zm11.9-23.8c0-7.2 1.6-13 4.8-17.3 3.2-4.3 7.6-6.4 13.2-6.4 6.3 0 11.1 2.5 14.4 7.5v-26.2h5.1V348h-4.8l-.2-6.2c-3.3 4.7-8.2 7.1-14.6 7.1-5.4 0-9.7-2.2-13-6.5-3.3-4.3-4.9-10.2-4.9-17.5v-.7zm5.2.9c0 5.9 1.2 10.6 3.6 14.1 2.4 3.4 5.7 5.1 10.1 5.1 6.3 0 10.9-2.8 13.5-8.4V314c-2.7-6.1-7.2-9.1-13.4-9.1-4.3 0-7.7 1.7-10.1 5.1-2.5 3.5-3.7 8.5-3.7 15.1z" fill="#455A64"/></svg>